# xmcd
#
# Track frame offsets:
#	150
#	18116
#	34005
#	49379
#	77554
#	95874
#	108690
#	127153
#	141760
#	160559
#	178752
#	198831
#	217918
#
# Disc length: 3108 seconds
#
# Revision: 0
# Processed by: cddbd v1.5.2PL0 Copyright (c) Steve Scherf et al.
# Submitted via: audiograbber 1.83.01
#
DISCID=b00c220d
DTITLE=Johnny Winter - I'm a Bluesman
DYEAR=2004
DGENRE=Blues
TTITLE0=I'm a Bluesman
TTITLE1=Cheatin' Blues
TTITLE2=I Smell Smoke
TTITLE3=Lone Wolf
TTITLE4=So Much Love
TTITLE5=The Monkey Song
TTITLE6=Shake Down
TTITLE7=Sweet Little Baby
TTITLE8=Pack Your Bags
TTITLE9=Last Night
TTITLE10=That Wouldn't Satisfy
TTITLE11=Sugar Coated Love
TTITLE12=Let's Start Over Again
EXTD=
EXTT0=
EXTT1=
EXTT2=
EXTT3=
EXTT4=
EXTT5=
EXTT6=
EXTT7=
EXTT8=
EXTT9=
EXTT10=
EXTT11=
EXTT12=
PLAYORDER=
